
<svg width="100" height="100" viewBox="0 0 100 100" fill="none" xmlns="http://www.w3.org/2000/svg">
  <defs>
    <!-- Main gradient matching the attached image -->
    <linearGradient id="mainGradient" x1="0%" y1="0%" x2="100%" y2="100%">
      <stop offset="0%" style="stop-color:#10B981;stop-opacity:1" />
      <stop offset="25%" style="stop-color:#22D3EE;stop-opacity:1" />
      <stop offset="50%" style="stop-color:#3B82F6;stop-opacity:1" />
      <stop offset="75%" style="stop-color:#6366F1;stop-opacity:1" />
      <stop offset="100%" style="stop-color:#8B5CF6;stop-opacity:1" />
    </linearGradient>
    
    <!-- Shadow gradient -->
    <linearGradient id="shadowGradient" x1="0%" y1="0%" x2="100%" y2="100%">
      <stop offset="0%" style="stop-color:#059669;stop-opacity:0.8" />
      <stop offset="50%" style="stop-color:#1E40AF;stop-opacity:0.6" />
      <stop offset="100%" style="stop-color:#7C3AED;stop-opacity:0.4" />
    </linearGradient>
    
    <!-- Inner highlight -->
    <linearGradient id="highlightGradient" x1="0%" y1="0%" x2="100%" y2="100%">
      <stop offset="0%" style="stop-color:#ECFDF5;stop-opacity:0.9" />
      <stop offset="50%" style="stop-color:#DBEAFE;stop-opacity:0.7" />
      <stop offset="100%" style="stop-color:#F3E8FF;stop-opacity:0.5" />
    </linearGradient>
  </defs>
  
  <!-- Outer glow effect -->
  <ellipse cx="50" cy="50" rx="45" ry="45" fill="url(#shadowGradient)" opacity="0.3" transform="scale(1.1)"/>
  
  <!-- Main T shape with rounded corners matching the image -->
  <path d="M15 20 C15 15 18 12 23 12 L77 12 C82 12 85 15 85 20 L85 28 C85 33 82 36 77 36 L60 36 L60 75 C60 82 55 87 48 87 L52 87 C45 87 40 82 40 75 L40 36 L23 36 C18 36 15 33 15 28 Z" fill="url(#mainGradient)"/>
  
  <!-- Inner shadow and depth -->
  <path d="M18 22 C18 19 20 17 23 17 L77 17 C80 17 82 19 82 22 L82 26 C82 29 80 31 77 31 L57 31 L57 73 C57 78 53 82 48 82 L52 82 C47 82 43 78 43 73 L43 31 L23 31 C20 31 18 29 18 26 Z" fill="url(#shadowGradient)" opacity="0.6"/>
  
  <!-- Highlight effect for 3D look -->
  <path d="M20 24 C20 22 21 21 23 21 L77 21 C79 21 80 22 80 24 L80 25 C80 27 79 28 77 28 L55 28 L55 71 C55 75 52 78 48 78 L52 78 C48 78 45 75 45 71 L45 28 L23 28 C21 28 20 27 20 25 Z" fill="url(#highlightGradient)" opacity="0.8"/>
  
  <!-- Extra shine on top -->
  <ellipse cx="50" cy="25" rx="25" ry="8" fill="rgba(255,255,255,0.3)"/>
</svg>
