
<svg width="200" height="200" viewBox="0 0 200 200" xmlns="http://www.w3.org/2000/svg">
  <defs>
    <!-- Main brand gradient -->
    <linearGradient id="tooloraBrand" x1="0%" y1="0%" x2="100%" y2="100%">
      <stop offset="0%" style="stop-color:#4facfe"/>
      <stop offset="25%" style="stop-color:#00f2fe"/>
      <stop offset="50%" style="stop-color:#43e97b"/>
      <stop offset="75%" style="stop-color:#38f9d7"/>
      <stop offset="100%" style="stop-color:#4facfe"/>
    </linearGradient>
    
    <!-- Secondary gradient for depth -->
    <linearGradient id="tooloraAccent" x1="0%" y1="0%" x2="100%" y2="100%">
      <stop offset="0%" style="stop-color:#667eea"/>
      <stop offset="100%" style="stop-color:#764ba2"/>
    </linearGradient>
    
    <!-- Glow effect -->
    <filter id="brandGlow" x="-50%" y="-50%" width="200%" height="200%">
      <feGaussianBlur stdDeviation="3" result="coloredBlur"/>
      <feMerge>
        <feMergeNode in="coloredBlur"/>
        <feMergeNode in="SourceGraphic"/>
      </feMerge>
    </filter>
    
    <!-- Neural network pattern -->
    <pattern id="aiPattern" x="0" y="0" width="20" height="20" patternUnits="userSpaceOnUse">
      <circle cx="10" cy="10" r="1" fill="url(#tooloraBrand)" opacity="0.3"/>
    </pattern>
  </defs>
  
  <!-- Background circle with subtle pattern -->
  <circle cx="100" cy="100" r="95" fill="url(#aiPattern)" opacity="0.1"/>
  
  <!-- Main geometric shapes forming "T" -->
  <!-- Top horizontal bar -->
  <rect x="40" y="60" width="120" height="25" rx="12" fill="url(#tooloraBrand)" filter="url(#brandGlow)">
    <animate attributeName="width" values="120;125;120" dur="4s" repeatCount="indefinite"/>
  </rect>
  
  <!-- Vertical stem -->
  <rect x="87.5" y="60" width="25" height="100" rx="12" fill="url(#tooloraBrand)" filter="url(#brandGlow)"/>
  
  <!-- AI brain symbol at top -->
  <g transform="translate(100, 45)">
    <!-- Central core -->
    <circle cx="0" cy="0" r="6" fill="url(#tooloraAccent)" filter="url(#brandGlow)">
      <animate attributeName="r" values="6;8;6" dur="3s" repeatCount="indefinite"/>
    </circle>
    
    <!-- Neural connections -->
    <circle cx="-15" cy="-8" r="3" fill="url(#tooloraBrand)" opacity="0.8">
      <animate attributeName="opacity" values="0.8;1;0.8" dur="2s" repeatCount="indefinite"/>
    </circle>
    <circle cx="15" cy="-8" r="3" fill="url(#tooloraBrand)" opacity="0.8">
      <animate attributeName="opacity" values="0.8;1;0.8" dur="2.5s" repeatCount="indefinite"/>
    </circle>
    <circle cx="-12" cy="10" r="3" fill="url(#tooloraBrand)" opacity="0.8">
      <animate attributeName="opacity" values="0.8;1;0.8" dur="2.2s" repeatCount="indefinite"/>
    </circle>
    <circle cx="12" cy="10" r="3" fill="url(#tooloraBrand)" opacity="0.8">
      <animate attributeName="opacity" values="0.8;1;0.8" dur="2.8s" repeatCount="indefinite"/>
    </circle>
    
    <!-- Connection lines -->
    <line x1="-15" y1="-8" x2="0" y2="0" stroke="url(#tooloraBrand)" stroke-width="2" opacity="0.6"/>
    <line x1="15" y1="-8" x2="0" y2="0" stroke="url(#tooloraBrand)" stroke-width="2" opacity="0.6"/>
    <line x1="-12" y1="10" x2="0" y2="0" stroke="url(#tooloraBrand)" stroke-width="2" opacity="0.6"/>
    <line x1="12" y1="10" x2="0" y2="0" stroke="url(#tooloraBrand)" stroke-width="2" opacity="0.6"/>
  </g>
  
  <!-- Modern geometric accents -->
  <rect x="30" y="50" width="8" height="8" rx="2" fill="url(#tooloraAccent)" opacity="0.7">
    <animateTransform attributeName="transform" type="rotate" values="0 34 54;360 34 54" dur="10s" repeatCount="indefinite"/>
  </rect>
  
  <rect x="162" y="50" width="8" height="8" rx="2" fill="url(#tooloraAccent)" opacity="0.7">
    <animateTransform attributeName="transform" type="rotate" values="360 166 54;0 166 54" dur="8s" repeatCount="indefinite"/>
  </rect>
  
  <!-- Bottom accent elements -->
  <circle cx="70" cy="180" r="4" fill="url(#tooloraBrand)" opacity="0.6">
    <animate attributeName="cy" values="180;175;180" dur="3s" repeatCount="indefinite"/>
  </circle>
  
  <circle cx="130" cy="180" r="4" fill="url(#tooloraBrand)" opacity="0.6">
    <animate attributeName="cy" values="180;175;180" dur="3.5s" repeatCount="indefinite"/>
  </circle>
  
  <!-- Outer ring animation -->
  <circle cx="100" cy="100" r="130" fill="none" stroke="url(#tooloraBrand)" stroke-width="1" opacity="0.2">
    <animateTransform attributeName="transform" type="rotate" values="0 100 100;360 100 100" dur="20s" repeatCount="indefinite"/>
  </circle>
  
  <!-- Tech-inspired corner elements -->
  <polygon points="20,20 30,20 30,25 25,25 25,30 20,30" fill="url(#tooloraAccent)" opacity="0.4"/>
  <polygon points="170,20 180,20 180,30 175,30 175,25 170,25" fill="url(#tooloraAccent)" opacity="0.4"/>
  <polygon points="20,170 25,170 25,175 30,175 30,180 20,180" fill="url(#tooloraAccent)" opacity="0.4"/>
  <polygon points="170,175 175,175 175,170 180,170 180,180 170,180" fill="url(#tooloraAccent)" opacity="0.4"/>
</svg>
