
<svg width="32" height="32" viewBox="0 0 32 32" fill="none" xmlns="http://www.w3.org/2000/svg">
  <defs>
    <linearGradient id="mainGradient" x1="0%" y1="0%" x2="100%" y2="100%">
      <stop offset="0%" style="stop-color:#10B981;stop-opacity:1" />
      <stop offset="25%" style="stop-color:#22D3EE;stop-opacity:1" />
      <stop offset="50%" style="stop-color:#3B82F6;stop-opacity:1" />
      <stop offset="75%" style="stop-color:#6366F1;stop-opacity:1" />
      <stop offset="100%" style="stop-color:#8B5CF6;stop-opacity:1" />
    </linearGradient>
    <linearGradient id="shadowGradient" x1="0%" y1="0%" x2="100%" y2="100%">
      <stop offset="0%" style="stop-color:#059669;stop-opacity:0.8" />
      <stop offset="50%" style="stop-color:#1E40AF;stop-opacity:0.6" />
      <stop offset="100%" style="stop-color:#7C3AED;stop-opacity:0.4" />
    </linearGradient>
  </defs>
  
  <!-- Main T shape scaled for favicon -->
  <path d="M5 6 C5 4.5 6 3.5 7.5 3.5 L24.5 3.5 C26 3.5 27 4.5 27 6 L27 9 C27 10.5 26 11.5 24.5 11.5 L19 11.5 L19 24 C19 26 17.5 27.5 15.5 27.5 L16.5 27.5 C14.5 27.5 13 26 13 24 L13 11.5 L7.5 11.5 C6 11.5 5 10.5 5 9 Z" fill="url(#mainGradient)"/>
  
  <!-- Inner shadow -->
  <path d="M6 7 C6 6 6.5 5.5 7.5 5.5 L24.5 5.5 C25.5 5.5 26 6 26 7 L26 8 C26 9 25.5 9.5 24.5 9.5 L18 9.5 L18 23 C18 24.5 17 25.5 15.5 25.5 L16.5 25.5 C15 25.5 14 24.5 14 23 L14 9.5 L7.5 9.5 C6.5 9.5 6 9 6 8 Z" fill="url(#shadowGradient)" opacity="0.6"/>
</svg>
